# xmcd
#
# Track frame offsets: 
#        150
#        16618
#        31345
#        51066
#        66326
#        81634
#        101567
#        122006
#        140688
#        158515
#        169479
#
# Disc length: 2489 seconds
#
# Revision: 1
# Processed by: cddbd v1.5.2PL0 Copyright (c) Steve Scherf et al.
# Submitted via: ExactAudioCopy v0.95b3
#
DISCID=9009b70b
DTITLE=Carolyn Wonderland - Bloodless Revolution
DYEAR=2003
DGENRE=Blues Rock
TTITLE0=Smile
TTITLE1=This Land
TTITLE2=Annie's Scarlet Letter
TTITLE3=He Said, She Said
TTITLE4=Unbroken
TTITLE5=Judgment Day Blues
TTITLE6=Bloodless Revolution
TTITLE7=Heart
TTITLE8=Homelessness In Austin
TTITLE9=From A Waffle Booth Six
TTITLE10=Driving Into The Sun
EXTD=
EXTT0=
EXTT1=
EXTT2=
EXTT3=
EXTT4=
EXTT5=
EXTT6=
EXTT7=
EXTT8=
EXTT9=
EXTT10=
PLAYORDER=
